<svg width="184" height="64" viewBox="0 0 184 64" fill="none" xmlns="http://www.w3.org/2000/svg">
<path d="M37.8009 23.927C38.1002 23.0057 39.4037 23.0057 39.703 23.9271L40.9971 27.9098C41.131 28.3219 41.5149 28.6008 41.9481 28.6008H46.1359C47.1046 28.6008 47.5074 29.8404 46.7237 30.4098L43.3357 32.8713C42.9852 33.126 42.8386 33.5773 42.9725 33.9894L44.2665 37.9721C44.5659 38.8934 43.5114 39.6596 42.7277 39.0902L39.3397 36.6287C38.9893 36.374 38.5147 36.374 38.1642 36.6287L34.7762 39.0902C33.9925 39.6596 32.938 38.8934 33.2374 37.9721L34.5315 33.9894C34.6653 33.5773 34.5187 33.126 34.1682 32.8713L30.7802 30.4098C29.9965 29.8404 30.3993 28.6008 31.368 28.6008H35.5558C35.989 28.6008 36.3729 28.3219 36.5068 27.9098L37.8009 23.927Z" fill="#FF3D2E"/>
<path d="M64.786 35.44H62.482V38.5H60.34V35.44H53.896V33.658L60.358 25.45H62.482V33.586H64.786V35.44ZM56.236 33.586H60.34V28.24L56.236 33.586ZM65.6391 38.5V36.052H68.0871V38.5H65.6391ZM76.8804 32.632C76.1844 33.628 75.1404 34.126 73.7484 34.126C72.5124 34.126 71.4804 33.718 70.6524 32.902C69.8244 32.086 69.4104 31.006 69.4104 29.662C69.4104 28.366 69.8484 27.304 70.7244 26.476C71.6124 25.636 72.7584 25.216 74.1624 25.216C75.8064 25.216 77.0304 25.786 77.8344 26.926C78.6504 28.054 79.0584 29.608 79.0584 31.588C79.0584 32.368 78.9984 33.1 78.8784 33.784C78.7704 34.468 78.5844 35.116 78.3204 35.728C78.0564 36.34 77.7264 36.868 77.3304 37.312C76.9464 37.744 76.4544 38.092 75.8544 38.356C75.2664 38.608 74.6004 38.734 73.8564 38.734C72.5844 38.734 71.5884 38.392 70.8684 37.708C70.1604 37.024 69.7584 36.196 69.6624 35.224H71.8404C71.9124 35.836 72.1404 36.298 72.5244 36.61C72.9204 36.922 73.4244 37.078 74.0364 37.078C74.9124 37.078 75.5964 36.676 76.0884 35.872C76.5924 35.068 76.8564 33.988 76.8804 32.632ZM74.1804 26.854C73.4244 26.854 72.8064 27.106 72.3264 27.61C71.8584 28.102 71.6244 28.78 71.6244 29.644C71.6244 30.484 71.8584 31.162 72.3264 31.678C72.8064 32.182 73.4184 32.434 74.1624 32.434C74.9064 32.434 75.5184 32.182 75.9984 31.678C76.4784 31.162 76.7184 30.484 76.7184 29.644C76.7184 28.792 76.4784 28.114 75.9984 27.61C75.5304 27.106 74.9244 26.854 74.1804 26.854Z" fill="white"/>
<path d="M112.204 23.1914H109.299V40.8023H112.204V23.1914Z" fill="white"/>
<path d="M122.382 35.2049C122.382 37.8522 120.045 38.0989 119.413 38.0989C117.707 38.0989 117.329 36.4985 117.329 35.5117V28.8633H114.424V35.5739C114.424 37.2365 114.992 38.5902 115.876 39.577C116.697 40.3772 117.961 40.8084 119.351 40.8084C120.362 40.8084 121.689 40.5617 122.32 39.8237V40.8084H125.225V28.8633H122.32V35.2049H122.382Z" fill="white"/>
<path d="M130.969 24.6133H128.064V28.8631H125.916V31.695H128.064V40.8083H130.969V31.695H133.117V28.8631H130.969V24.6133Z" fill="white"/>
<path d="M142.227 37.2343C141.595 37.7878 140.774 38.0967 139.889 38.0967C137.869 38.0967 136.414 36.6808 136.414 34.6492C136.414 32.6175 137.867 31.2617 139.889 31.2617C140.774 31.2617 141.595 31.5084 142.227 32.1242L142.669 32.4932L144.564 30.646L144.122 30.2148C142.922 29.2301 141.467 28.6144 139.889 28.6144C136.289 28.5522 133.635 31.0772 133.635 34.6492C133.635 38.0967 136.351 40.7461 139.889 40.7461C141.531 40.7461 143.048 40.1926 144.249 39.1457L144.691 38.7145L142.671 36.7451L142.227 37.2343Z" fill="white"/>
<path d="M154.979 29.9041C154.158 29.1039 153.148 28.6727 151.821 28.6727C150.811 28.6727 149.737 28.9194 148.977 29.6574V23.1914H146.072V40.8023H148.977V34.1519C148.977 31.5045 150.998 31.2578 151.631 31.2578C153.337 31.2578 153.337 32.8582 153.337 33.845V40.8023H156.242V33.7828C156.306 32.2425 155.927 30.8266 154.979 29.9041Z" fill="white"/>
<path d="M139.75 36.739C140.901 36.739 141.834 35.8295 141.834 34.7074C141.834 33.5854 140.901 32.6758 139.75 32.6758C138.599 32.6758 137.666 33.5854 137.666 34.7074C137.666 35.8295 138.599 36.739 139.75 36.739Z" fill="white"/>
<path d="M105.323 36.3668C104.249 37.4137 102.669 38.0294 101.155 38.0294C97.8688 38.0294 95.5315 35.5666 95.5315 32.1791C95.5315 28.7917 97.8688 26.3289 101.091 26.3289C102.607 26.3289 104.06 26.9446 105.259 27.9915L105.701 28.4227L107.596 26.5756L107.154 26.1444C105.512 24.5439 103.364 23.6836 101.091 23.6836C96.2886 23.7437 92.752 27.3778 92.752 32.2413C92.752 37.1069 96.2886 40.7389 101.091 40.7389C103.428 40.7389 105.64 39.8765 107.154 38.2761L107.596 37.8449L105.701 35.8755L105.323 36.3668Z" fill="white"/>
</svg>
