<svg width="184" height="64" viewBox="0 0 184 64" fill="none" xmlns="http://www.w3.org/2000/svg">
<path d="M32 24H29V23C29 22.7348 28.8946 22.4804 28.7071 22.2929C28.5196 22.1054 28.2652 22 28 22H18C17.7348 22 17.4804 22.1054 17.2929 22.2929C17.1054 22.4804 17 22.7348 17 23V24H14C13.7348 24 13.4804 24.1054 13.2929 24.2929C13.1054 24.4804 13 24.7348 13 25V28C13 29.0609 13.4214 30.0783 14.1716 30.8284C14.9217 31.5786 15.9391 32 17 32H18.54C19.4445 33.0091 20.6641 33.6824 22 33.91V36H21C20.2044 36 19.4413 36.3161 18.8787 36.8787C18.3161 37.4413 18 38.2044 18 39V41C18 41.2652 18.1054 41.5196 18.2929 41.7071C18.4804 41.8946 18.7348 42 19 42H27C27.2652 42 27.5196 41.8946 27.7071 41.7071C27.8946 41.5196 28 41.2652 28 41V39C28 38.2044 27.6839 37.4413 27.1213 36.8787C26.5587 36.3161 25.7956 36 25 36H24V33.91C25.3359 33.6824 26.5555 33.0091 27.46 32H29C30.0609 32 31.0783 31.5786 31.8284 30.8284C32.5786 30.0783 33 29.0609 33 28V25C33 24.7348 32.8946 24.4804 32.7071 24.2929C32.5196 24.1054 32.2652 24 32 24V24ZM17 30C16.4696 30 15.9609 29.7893 15.5858 29.4142C15.2107 29.0391 15 28.5304 15 28V26H17V28C17.0022 28.6817 17.1206 29.3581 17.35 30H17ZM25 38C25.2652 38 25.5196 38.1054 25.7071 38.2929C25.8946 38.4804 26 38.7348 26 39V40H20V39C20 38.7348 20.1054 38.4804 20.2929 38.2929C20.4804 38.1054 20.7348 38 21 38H25ZM27 28C27 29.0609 26.5786 30.0783 25.8284 30.8284C25.0783 31.5786 24.0609 32 23 32C21.9391 32 20.9217 31.5786 20.1716 30.8284C19.4214 30.0783 19 29.0609 19 28V24H27V28ZM31 28C31 28.5304 30.7893 29.0391 30.4142 29.4142C30.0391 29.7893 29.5304 30 29 30H28.65C28.8794 29.3581 28.9978 28.6817 29 28V26H31V28Z" fill="#FDC448"/>
<path d="M18.5 24V28.5L19.5 32L23.5 33L27 31V24H18.5Z" fill="#FDC448"/>
<path d="M51.2219 29.0333C51.2219 29.0333 50.1114 28.9229 50.1114 29.9124V34.3076H57.4448V35.6267C57.4448 35.6267 57.4667 36.2857 56.7781 36.2857H50.1114V42H58.1114C58.1114 42 62.9552 41.2524 63 36.2857V29.0333H51.2219ZM62.7771 22H48.3333C43.1105 23.2305 43 27.5162 43 27.5162V42H48.5562V28.8133C48.5562 27.6924 49.6667 27.4952 49.6667 27.4952H62.7781L62.7771 22Z" fill="white"/>
<g clip-path="url(#clip0_53887_50333)">
<path d="M80.3875 37.4624C80.0253 37.7009 79.7574 37.876 79.5682 37.9876C78.891 38.4012 78.2455 38.7201 77.6471 38.9747C76.7808 39.3249 76.0086 39.5 75.316 39.5C72.9378 39.5 70.9688 38.7836 69.3773 37.3346C67.7858 35.8857 67 34.0714 67 31.8747C67 29.7576 67.7088 27.9263 69.1419 26.3657C70.575 24.806 72.3077 24.0413 74.3555 24.0413C75.2065 24.0413 76.119 24.1843 77.0641 24.488C78.2926 24.8694 79.2848 25.4429 80.0724 26.1906L78.7018 27.6869C78.1197 27.1304 77.3638 26.7159 76.4811 26.4613C75.8203 26.2701 75.096 26.1755 74.2921 26.1755C72.8591 26.1755 71.646 26.7472 70.6854 27.8781C69.7249 29.0242 69.237 30.3776 69.237 31.9694C69.237 33.5461 69.7874 34.8352 70.89 35.8705C71.9927 36.9049 73.3941 37.4302 75.0951 37.4302C75.804 37.4302 76.5291 37.2069 77.2687 36.7781C77.8834 36.3163 78.1985 36.0929 78.2139 36.0769V32.8136H73.615L74.2758 30.776H80.3875V37.4624ZM94.2792 33.4818C94.2792 35.0576 93.7125 36.427 92.5781 37.5731C91.4438 38.7193 90.0424 39.3088 88.3731 39.3088C86.8295 39.3088 85.4752 38.7353 84.3092 37.6053C83.1432 36.4753 82.5765 35.1058 82.5765 33.4979C82.5765 31.906 83.1287 30.5366 84.2304 29.3583C85.3322 28.18 86.6874 27.6074 88.278 27.6074C90.0424 27.6074 91.4755 28.1648 92.5935 29.2949C93.7125 30.3936 94.2792 31.7943 94.2792 33.4818ZM92.121 33.514C92.121 32.4474 91.7588 31.5398 91.0346 30.8072C90.3104 30.0587 89.4123 29.6924 88.3414 29.6924C87.3338 29.6924 86.4828 30.0747 85.774 30.8394C85.0651 31.6032 84.7184 32.4786 84.7184 33.4657C84.7184 34.5011 85.0805 35.3765 85.7893 36.109C86.4982 36.8415 87.3808 37.223 88.4509 37.223C89.444 37.223 90.2941 36.8567 91.0192 36.1242C91.7588 35.3917 92.121 34.5162 92.121 33.514ZM107.982 33.4818C107.982 35.0576 107.415 36.427 106.281 37.5731C105.146 38.7193 103.745 39.3088 102.076 39.3088C100.532 39.3088 99.1777 38.7353 98.0117 37.6053C96.8466 36.4753 96.279 35.1058 96.279 33.4979C96.279 31.906 96.8312 30.5366 97.9329 29.3583C99.0356 28.18 100.39 27.6074 101.98 27.6074C103.745 27.6074 105.178 28.1648 106.296 29.2949C107.415 30.3936 107.982 31.7943 107.982 33.4818ZM105.823 33.514C105.823 32.4474 105.461 31.5398 104.737 30.8072C104.013 30.0587 103.115 29.6924 102.044 29.6924C101.036 29.6924 100.185 30.0747 99.4765 30.8394C98.7676 31.6032 98.4209 32.4786 98.4209 33.4657C98.4209 34.5011 98.783 35.3765 99.4928 36.109C100.201 36.8415 101.083 37.223 102.154 37.223C103.147 37.223 103.997 36.8567 104.722 36.1242C105.461 35.3917 105.823 34.5162 105.823 33.514ZM120.661 38.9899L118.677 39.2928V37.3981L118.251 37.8751C117.877 38.2215 117.452 38.5114 116.991 38.7353C116.315 39.0431 115.579 39.2008 114.834 39.1972C113.29 39.1972 111.967 38.6397 110.896 37.5088C109.825 36.3779 109.29 35.0415 109.29 33.4818C109.29 31.8738 109.825 30.4892 110.88 29.3422C111.936 28.1952 113.227 27.6226 114.77 27.6226C115.653 27.6226 116.424 27.7655 117.07 28.0523C117.527 28.2595 117.921 28.5302 118.251 28.8652C118.362 29.0081 118.472 29.1671 118.583 29.3101V24.3433L120.692 24.0405L120.661 38.9899ZM118.803 33.6247C118.803 32.5108 118.424 31.571 117.653 30.8072C116.882 30.0265 116.014 29.6451 115.023 29.6451C113.92 29.6451 113.039 30.0113 112.361 30.7438C111.731 31.4433 111.4 32.3035 111.4 33.3067C111.4 34.4367 111.73 35.3756 112.392 36.1081C113.053 36.8406 113.889 37.2069 114.913 37.2069C115.92 37.2069 116.803 36.8728 117.59 36.1885C118.393 35.4873 118.803 34.6279 118.803 33.6247ZM131.796 26.414H125.89V30.3776H130.473V32.4152H125.89V38.9747L123.591 39.3088V24.3594H131.339L131.796 26.414ZM136.537 25.2509L135.12 27.0178L133.765 25.2509L135.198 23.5L136.537 25.2509ZM136.112 38.9899L134.002 39.2767V28.2122L136.112 27.8942V38.9899ZM145.641 27.7825L144.649 30.0426C144.518 30.023 144.387 30.0125 144.255 30.0113C144.05 30.0113 143.846 30.0274 143.64 30.0587C143.435 30.0899 143.215 30.1703 142.979 30.282C142.539 30.4731 142.16 30.8867 141.83 31.5076C141.464 32.2122 141.275 32.993 141.277 33.7846V38.9747L139.168 39.3088V28.2122L141.121 27.862V30.1703C141.372 29.7719 141.64 29.3744 141.892 28.9608C142.254 28.5463 142.68 28.2443 143.152 28.0684C143.404 27.9737 143.861 27.8933 144.554 27.8299C145.215 27.7825 145.594 27.7503 145.641 27.7825ZM161.359 38.9899L159.248 39.2928V31.6988C159.248 30.9975 159.091 30.4883 158.776 30.1703C158.461 29.8514 157.988 29.6924 157.374 29.6924C156.634 29.6924 156.066 29.9952 155.689 30.6C155.436 31.0136 155.295 31.4594 155.295 31.9051V38.9738L153.185 39.3562V31.7461C153.185 31.0779 153.027 30.5678 152.728 30.2186C152.413 29.8675 152.003 29.6924 151.467 29.6924H151.263C150.522 29.6924 149.986 29.9952 149.656 30.6161C149.404 31.0779 149.278 31.6666 149.278 32.383V38.9738L147.089 39.3562V28.2122L149.058 27.8781V29.2949C149.278 28.9599 149.498 28.6892 149.704 28.4989C150.271 27.9737 150.932 27.7182 151.672 27.7182C152.507 27.7182 153.12 27.8459 153.546 28.1166C153.908 28.3399 154.255 28.7848 154.602 29.4217C155.326 28.2917 156.35 27.7182 157.705 27.7182C158.996 27.7182 159.957 28.1166 160.586 28.9286C161.107 29.5968 161.359 30.5839 161.359 31.8738V38.9899ZM171 35.6311C171 36.6495 170.638 37.4936 169.914 38.1466C169.189 38.8148 168.275 39.1337 167.172 39.1337C166.338 39.1337 165.597 38.9426 164.92 38.5602C164.243 38.1788 163.74 37.7482 163.408 37.239L164.889 35.9339C164.999 36.0929 165.094 36.2198 165.188 36.3154C165.74 36.8728 166.401 37.1595 167.172 37.1595C167.708 37.1595 168.134 37.0166 168.433 36.7459C168.748 36.4753 168.89 36.0929 168.89 35.5989C168.89 35.0424 168.528 34.6601 167.803 34.4528C166.369 34.0231 165.597 33.7846 165.488 33.7364C164.826 33.4023 164.353 33.0521 164.054 32.6537C163.723 32.1919 163.55 31.5871 163.55 30.8072C163.55 29.8514 163.912 29.0564 164.621 28.4194C165.33 27.7825 166.18 27.4797 167.156 27.4797C167.898 27.4797 168.59 27.6387 169.22 27.9737C169.85 28.3078 170.307 28.6579 170.575 29.0724L169.314 30.4249C169.125 30.238 168.92 30.0676 168.701 29.9157C168.196 29.5655 167.708 29.3905 167.252 29.3905C166.81 29.3905 166.448 29.486 166.165 29.6763C165.833 29.9157 165.661 30.2659 165.661 30.7277C165.661 31.1735 165.818 31.5076 166.149 31.7148C166.433 31.8899 167.031 32.0811 167.976 32.2874C168.921 32.5108 169.646 32.8931 170.165 33.4345C170.748 34.0071 171 34.7235 171 35.6311Z" fill="white"/>
</g>
<defs>
<clipPath id="clip0_53887_50333">
<rect width="106" height="17" fill="white" transform="translate(67 23.5)"/>
</clipPath>
</defs>
</svg>
