<svg width="184" height="64" viewBox="0 0 184 64" fill="none" xmlns="http://www.w3.org/2000/svg">
<path fill-rule="evenodd" clip-rule="evenodd" d="M50.488 39.5582C51.9297 41.4915 52.6964 41.7165 53.138 41.7165C53.5797 41.7165 54.3464 41.4915 55.788 39.5582C55.9012 39.4093 56.0519 39.2931 56.2246 39.2214C56.3973 39.1496 56.586 39.125 56.7714 39.1499C58.988 39.4665 59.638 39.1082 59.938 38.8082C60.238 38.5082 60.5964 37.8499 60.288 35.6332C60.2613 35.4477 60.2852 35.2585 60.3571 35.0854C60.4289 34.9124 60.5461 34.7619 60.6964 34.6499C62.6297 33.2082 62.8464 32.4415 62.8464 31.9999C62.8464 31.5582 62.6297 30.7915 60.6964 29.3499C60.5461 29.2378 60.4289 29.0874 60.3571 28.9143C60.2852 28.7413 60.2613 28.552 60.288 28.3665C60.638 26.1665 60.238 25.4832 59.938 25.1915C59.638 24.8999 58.988 24.5332 56.7714 24.8499C56.586 24.8739 56.3977 24.8488 56.2251 24.7772C56.0525 24.7055 55.9018 24.5898 55.788 24.4415C54.3464 22.5082 53.5797 22.2832 53.138 22.2832C52.6964 22.2832 51.9297 22.5082 50.488 24.4415C50.3748 24.5904 50.2242 24.7066 50.0514 24.7784C49.8787 24.8501 49.6901 24.8748 49.5047 24.8499C47.3047 24.4999 46.638 24.8915 46.338 25.1915C46.038 25.4915 45.6797 26.1499 45.988 28.3665C46.0147 28.552 45.9908 28.7413 45.919 28.9143C45.8471 29.0874 45.7299 29.2378 45.5797 29.3499C43.6464 30.7915 43.4297 31.5582 43.4297 31.9999C43.4297 32.4415 43.6464 33.2082 45.5797 34.6499C45.7299 34.7619 45.8471 34.9124 45.919 35.0854C45.9908 35.2585 46.0147 35.4477 45.988 35.6332C45.6797 37.8332 46.038 38.5165 46.338 38.8082C46.638 39.0999 47.3047 39.4999 49.5047 39.1499C49.6901 39.125 49.8787 39.1496 50.0514 39.2214C50.2242 39.2931 50.3748 39.4093 50.488 39.5582ZM52.4003 34.8547C52.5018 34.8962 52.6105 34.9172 52.7202 34.9166C52.8299 34.9172 52.9386 34.8962 53.0401 34.8547C53.1417 34.8132 53.234 34.7521 53.3119 34.6749L56.6452 31.3416C56.7233 31.2641 56.7853 31.1719 56.8276 31.0704C56.8699 30.9688 56.8917 30.8599 56.8917 30.7499C56.8917 30.6399 56.8699 30.531 56.8276 30.4294C56.7853 30.3279 56.7233 30.2357 56.6452 30.1582C56.5677 30.0801 56.4756 30.0181 56.374 29.9758C56.2725 29.9335 56.1636 29.9117 56.0535 29.9117C55.9435 29.9117 55.8346 29.9335 55.7331 29.9758C55.6315 30.0181 55.5393 30.0801 55.4619 30.1582L52.7202 32.9082L51.6452 31.8249C51.4883 31.668 51.2755 31.5798 51.0535 31.5798C50.8316 31.5798 50.6188 31.668 50.4619 31.8249C50.305 31.9818 50.2168 32.1947 50.2168 32.4166C50.2168 32.6385 50.305 32.8513 50.4619 33.0082L52.1285 34.6749C52.2064 34.7521 52.2988 34.8132 52.4003 34.8547Z" fill="#146EF5"/>
<g style="mix-blend-mode:luminosity" clip-path="url(#clip0_53887_50414)">
<path d="M129.121 29.9596V38.7861H126.277V28.5774L129.121 29.9596Z" fill="white"/>
<path d="M88.875 37.1435L91.0076 38.9997L99.9924 34.3198L99.0643 32.0885L88.875 37.1435ZM126.275 31.4566L133.503 27.7049L132.278 25.592L126.275 28.5737V31.4566Z" fill="white"/>
<path d="M105.936 29.2667V38.7843H103.211V25.2188L105.936 29.2667ZM88.875 37.1454L91.0076 39.0015L95.115 28.7336L93.7919 25.2188L88.875 37.1454Z" fill="white"/>
<path d="M93.793 25.2188H96.597L101.79 38.7843H98.9074L93.793 25.2188ZM106.352 25.2188L112.335 34.4797V38.7843L103.212 25.2188H106.352ZM117.469 25.2188H120.293V38.7843H117.469V25.2188ZM126.276 27.7068H121.932V25.2188H132.062L133.504 27.7068H129.12H126.276Z" fill="white"/>
<path d="M141.855 33.6343V38.788H139.051V33.6343" fill="white"/>
<path d="M143.79 25.2188L139.051 33.6306H141.855L146.772 25.2188H143.79Z" fill="white"/>
<path d="M139.053 33.6306L134.156 25.2188H137.237L140.534 30.9846L139.053 33.6306Z" fill="white"/>
<path d="M78.3543 26.8015C78.3543 28.6774 79.5194 29.8029 81.8495 30.3953L84.3178 30.9679C86.5295 31.4813 87.8723 32.7451 87.8723 34.7987C87.892 35.6873 87.5958 36.5561 87.0626 37.267C87.0626 35.2134 85.9963 34.1076 83.449 33.4362L81.0201 32.8833C79.0652 32.4489 77.5645 31.4024 77.5645 29.171C77.5645 28.322 77.8409 27.4729 78.3543 26.8015Z" fill="white"/>
<path d="M112.332 33.7886V25.2188H115.057V38.7843H112.332V33.7886Z" fill="white"/>
<path d="M85.536 34.2807C86.5826 34.952 87.0565 35.8999 87.0565 37.2623C86.1679 38.3879 84.6474 39 82.8505 39C79.8292 39 77.6768 37.4993 77.2227 34.9126H80.1254C80.5006 36.0973 81.488 36.6502 82.8307 36.6502C84.4302 36.67 85.5163 35.8011 85.536 34.2807ZM79.8687 29.5811C78.8814 28.9887 78.3087 27.9224 78.3482 26.7772C79.1973 25.6714 80.6586 25 82.4358 25C85.536 25 87.3132 26.6389 87.7674 28.9295H84.9634C84.6474 28.0212 83.8773 27.3103 82.4753 27.3103C80.9548 27.33 79.928 28.1989 79.8687 29.5811Z" fill="white"/>
</g>
<defs>
<clipPath id="clip0_53887_50414">
<rect width="69.7234" height="14" fill="white" transform="translate(77.1387 25)"/>
</clipPath>
</defs>
</svg>
