<svg width="184" height="64" viewBox="0 0 184 64" fill="none" xmlns="http://www.w3.org/2000/svg">
<path fill-rule="evenodd" clip-rule="evenodd" d="M37.949 39.5582C39.3906 41.4915 40.1573 41.7165 40.599 41.7165C41.0406 41.7165 41.8073 41.4915 43.249 39.5582C43.3622 39.4093 43.5128 39.2931 43.6855 39.2214C43.8583 39.1496 44.0469 39.125 44.2323 39.1499C46.449 39.4665 47.099 39.1082 47.399 38.8082C47.699 38.5082 48.0573 37.8499 47.749 35.6332C47.7223 35.4477 47.7461 35.2585 47.818 35.0854C47.8899 34.9124 48.0071 34.7619 48.1573 34.6499C50.0906 33.2082 50.3073 32.4415 50.3073 31.9999C50.3073 31.5582 50.0906 30.7915 48.1573 29.3499C48.0071 29.2378 47.8899 29.0874 47.818 28.9143C47.7461 28.7413 47.7223 28.552 47.749 28.3665C48.099 26.1665 47.699 25.4832 47.399 25.1915C47.099 24.8999 46.449 24.5332 44.2323 24.8499C44.047 24.8739 43.8586 24.8488 43.686 24.7772C43.5135 24.7055 43.3627 24.5898 43.249 24.4415C41.8073 22.5082 41.0406 22.2832 40.599 22.2832C40.1573 22.2832 39.3906 22.5082 37.949 24.4415C37.8358 24.5904 37.6851 24.7066 37.5124 24.7784C37.3396 24.8501 37.151 24.8748 36.9656 24.8499C34.7656 24.4999 34.099 24.8915 33.799 25.1915C33.499 25.4915 33.1406 26.1499 33.449 28.3665C33.4756 28.552 33.4518 28.7413 33.3799 28.9143C33.3081 29.0874 33.1908 29.2378 33.0406 29.3499C31.1073 30.7915 30.8906 31.5582 30.8906 31.9999C30.8906 32.4415 31.1073 33.2082 33.0406 34.6499C33.1908 34.7619 33.3081 34.9124 33.3799 35.0854C33.4518 35.2585 33.4756 35.4477 33.449 35.6332C33.1406 37.8332 33.499 38.5165 33.799 38.8082C34.099 39.0999 34.7656 39.4999 36.9656 39.1499C37.151 39.125 37.3396 39.1496 37.5124 39.2214C37.6851 39.2931 37.8358 39.4093 37.949 39.5582ZM39.8612 34.8547C39.9628 34.8962 40.0715 34.9172 40.1811 34.9166C40.2908 34.9172 40.3995 34.8962 40.5011 34.8547C40.6026 34.8132 40.6949 34.7521 40.7728 34.6749L44.1061 31.3416C44.1843 31.2641 44.2462 31.1719 44.2886 31.0704C44.3309 30.9688 44.3526 30.8599 44.3526 30.7499C44.3526 30.6399 44.3309 30.531 44.2886 30.4294C44.2462 30.3279 44.1843 30.2357 44.1061 30.1582C44.0287 30.0801 43.9365 30.0181 43.835 29.9758C43.7334 29.9335 43.6245 29.9117 43.5145 29.9117C43.4045 29.9117 43.2955 29.9335 43.194 29.9758C43.0924 30.0181 43.0003 30.0801 42.9228 30.1582L40.1811 32.9082L39.1061 31.8249C38.9492 31.668 38.7364 31.5798 38.5145 31.5798C38.2926 31.5798 38.0797 31.668 37.9228 31.8249C37.7659 31.9818 37.6777 32.1947 37.6777 32.4166C37.6777 32.6385 37.7659 32.8513 37.9228 33.0082L39.5895 34.6749C39.6673 34.7521 39.7597 34.8132 39.8612 34.8547Z" fill="#146EF5"/>
<path fill-rule="evenodd" clip-rule="evenodd" d="M86.8995 33.004L88.6977 34.7731C88.8399 34.9134 88.9205 35.1042 88.9205 35.3024V36.2976C88.9205 38.9643 88.6382 39.9316 88.108 40.907C87.5903 41.8701 86.7897 42.6581 85.8101 43.1688C84.8189 43.6893 83.8359 43.9672 81.1256 43.9672H76.3667C76.3052 43.9669 76.25 43.9304 76.2266 43.8746C76.2032 43.8188 76.2163 43.7546 76.2597 43.7119L78.0573 41.9434C78.1994 41.8032 78.3931 41.7241 78.5948 41.7241H80.7946C82.8271 41.7241 83.5637 41.516 84.3071 41.1244C85.0418 40.7415 85.6424 40.1506 86.0308 39.4284C86.4216 38.7092 86.6331 37.9959 86.64 36.0702L86.6402 33.1097C86.6405 33.0495 86.6775 32.9954 86.7341 32.9723C86.7907 32.9493 86.8559 32.9617 86.8995 33.004ZM64.8589 31.5074L66.6578 33.2766C66.8 33.4169 66.8806 33.6077 66.8806 33.8058V35.9705C66.8806 37.971 67.0918 38.6964 67.4899 39.4277C67.8782 40.1498 68.4785 40.7407 69.213 41.1237C69.9564 41.5153 70.6937 41.7234 72.7262 41.7234H75.6334C75.6951 41.7232 75.7509 41.7595 75.7746 41.8154C75.7983 41.8714 75.7854 41.9358 75.7418 41.9787L73.9429 43.7478C73.8007 43.8881 73.607 43.9672 73.406 43.9672H72.3944C69.6842 43.9672 68.7018 43.6893 67.7106 43.1681C66.7308 42.6575 65.93 41.8695 65.4121 40.9063C64.8893 39.9445 64.6075 38.9905 64.5998 36.4071L64.5996 31.6132C64.5999 31.553 64.6369 31.4989 64.6935 31.4758C64.7501 31.4527 64.8153 31.4652 64.8589 31.5074ZM100.429 27.8985C101.138 27.8985 101.776 28.0276 102.342 28.2856C102.909 28.5429 103.392 28.8972 103.791 29.346C104.198 29.81 104.507 30.3493 104.698 30.9323C104.905 31.5406 105.008 32.1955 105.008 32.8956C105.013 33.5636 104.902 34.2277 104.679 34.8589C104.477 35.4391 104.166 35.977 103.762 36.4452C103.371 36.8934 102.887 37.2549 102.342 37.5056C101.774 37.7666 101.153 37.8989 100.526 37.8925C100.088 37.8925 99.7018 37.846 99.3666 37.7536C99.0567 37.671 98.7583 37.5511 98.4783 37.3966C98.2421 37.2665 98.0218 37.1104 97.8216 36.9312C97.6575 36.7839 97.5085 36.6211 97.3768 36.4452C97.3449 36.4452 97.3189 36.4704 97.3186 36.5017V41.3045C97.3186 41.7855 96.9215 42.1754 96.4316 42.1754H95.888C95.3981 42.1754 95.001 41.7855 95.001 41.3045V29.0076C95.001 28.5269 95.3978 28.1367 95.888 28.1367H96.4756C96.8771 28.1367 97.2028 28.4558 97.2028 28.8507V29.5262C97.2028 29.5475 97.2204 29.5641 97.2414 29.5641C97.5765 28.9823 98.0268 28.5602 98.5941 28.2949C99.1677 28.0292 99.7948 27.8937 100.429 27.8985ZM83.0999 29.2636L84.8981 31.0347C85.0403 31.175 85.1202 31.3652 85.1202 31.564V37.2377C85.1202 38.8898 83.7594 40.2295 82.0803 40.2295H80.1554C80.0947 40.2292 80.0399 40.1935 80.016 40.1386C79.9922 40.0837 80.0038 40.0201 80.0458 39.9768L82.3883 37.5635C82.5508 37.4039 82.6686 37.2178 82.7424 37.0183C82.8071 36.8493 82.8402 36.6703 82.8399 36.4898V29.3693C82.84 29.3089 82.8771 29.2544 82.934 29.2312C82.9909 29.2081 83.0563 29.2209 83.0999 29.2636ZM68.6572 35.2339L71.1087 37.5395C71.2706 37.6991 71.4608 37.8148 71.6626 37.8873C71.8291 37.9498 72.0106 37.9837 72.2001 37.9837H79.4351C79.4965 37.984 79.5517 38.0205 79.5751 38.0763C79.5985 38.1321 79.5855 38.1963 79.542 38.239L77.7424 40.0088C77.6003 40.1484 77.4066 40.2275 77.2055 40.2275H71.4398C70.6327 40.2266 69.8589 39.9109 69.2888 39.3498C68.7187 38.7888 68.399 38.0283 68.3999 37.2357V35.3416C68.4002 35.2819 68.4366 35.2281 68.4925 35.2047C68.5484 35.1813 68.6131 35.1927 68.6572 35.2339ZM156.437 27.8986C157.03 27.8986 157.625 28.0143 158.224 28.2457C158.453 28.3341 158.722 28.4917 159.032 28.7184C159.236 28.8675 159.365 29.0955 159.386 29.3444C159.408 29.5932 159.319 29.8391 159.143 30.0195L158.784 30.3872C158.469 30.7106 157.956 30.7468 157.597 30.4709C157.517 30.4081 157.433 30.3504 157.346 30.2981C157.072 30.1325 156.758 30.0433 156.437 30.0401C156.012 30.0401 155.632 30.1199 155.297 30.2781C154.97 30.4308 154.678 30.6465 154.438 30.9124C154.198 31.1787 154.014 31.4886 153.897 31.8245C153.774 32.1686 153.712 32.5305 153.713 32.8949C153.713 33.2659 153.774 33.6223 153.897 33.966C154.019 34.3097 154.199 34.6142 154.438 34.8781C154.678 35.1442 154.971 35.3601 155.297 35.5131C155.632 35.6713 156.012 35.7511 156.437 35.7511C156.798 35.7511 157.133 35.6746 157.442 35.523C157.505 35.4918 157.572 35.4499 157.645 35.3974C158.014 35.1306 158.529 35.1839 158.834 35.5204L159.186 35.9087C159.355 36.0949 159.429 36.3458 159.389 36.592C159.349 36.8382 159.198 37.0536 158.978 37.1785C158.42 37.4977 157.808 37.7162 157.172 37.8234C156.888 37.8693 156.643 37.8926 156.437 37.8926C155.763 37.8964 155.095 37.7753 154.467 37.5355C153.867 37.3096 153.321 36.9655 152.863 36.5243C152.403 36.0739 152.038 35.538 151.791 34.948C151.527 34.333 151.395 33.6489 151.395 32.8956C151.395 32.1423 151.527 31.4582 151.791 30.8432C152.038 30.2531 152.403 29.7173 152.863 29.2669C153.321 28.8257 153.867 28.4816 154.467 28.2557C155.095 28.0159 155.763 27.8948 156.437 27.8986ZM123.767 27.8987C124.386 27.8987 124.998 28.0077 125.603 28.2258C125.822 28.3049 126.067 28.4511 126.337 28.6645C126.537 28.8226 126.657 29.0579 126.667 29.3097C126.676 29.5615 126.575 29.8051 126.388 29.9776L126.099 30.2442C125.787 30.5322 125.311 30.5605 124.966 30.3114C124.495 29.9723 124.076 29.8021 123.71 29.8021C123.4 29.8021 123.098 29.8819 122.801 30.0401C122.505 30.199 122.357 30.4563 122.357 30.8133C122.357 31.1045 122.479 31.3159 122.724 31.4482C122.969 31.5799 123.278 31.6929 123.652 31.7853C124.025 31.8777 124.428 31.9735 124.859 32.0725C125.291 32.1722 125.693 32.3238 126.067 32.5286C126.44 32.7334 126.749 33.0139 126.994 33.3716C127.239 33.7286 127.361 34.2173 127.361 34.8389C127.361 35.4074 127.242 35.886 127.004 36.2763C126.774 36.6575 126.456 36.9802 126.076 37.2184C125.682 37.4621 125.247 37.6364 124.792 37.7336C124.323 37.8387 123.843 37.892 123.362 37.8925C122.641 37.8925 121.977 37.7862 121.371 37.5754C121.134 37.4923 120.85 37.3261 120.518 37.0761C120.314 36.9225 120.188 36.6894 120.173 36.4373C120.157 36.1852 120.254 35.939 120.438 35.7624L120.678 35.531C121.01 35.2115 121.536 35.1976 121.885 35.4991C122.026 35.6208 122.148 35.7145 122.251 35.7803C122.592 35.9991 123.008 36.1081 123.497 36.1081C123.664 36.1081 123.838 36.0882 124.019 36.0483C124.199 36.0084 124.367 35.9426 124.521 35.8501C124.675 35.7571 124.801 35.6421 124.898 35.5031C124.994 35.3641 125.043 35.2026 125.043 35.0178C125.043 34.6867 124.92 34.442 124.675 34.2838C124.431 34.1249 124.121 33.9959 123.748 33.8968C123.348 33.7919 122.946 33.6994 122.541 33.6196C122.12 33.5373 121.714 33.397 121.333 33.2028C120.962 33.0132 120.644 32.7375 120.406 32.3996C120.161 32.0559 120.039 31.5799 120.039 30.9722C120.039 30.4437 120.145 29.9843 120.357 29.594C120.56 29.2154 120.847 28.8867 121.198 28.6326C121.558 28.3753 121.965 28.1868 122.396 28.0768C122.843 27.9585 123.304 27.8987 123.767 27.8987ZM148.015 28.1367C148.505 28.1367 148.902 28.5269 148.902 29.0076V36.7836C148.902 37.2646 148.505 37.6545 148.015 37.6545H147.471C146.982 37.6545 146.585 37.2646 146.585 36.7836V29.0076C146.585 28.5269 146.981 28.1367 147.471 28.1367H148.015ZM140.383 27.8987C141.001 27.8987 141.522 28.0044 141.947 28.2158C142.361 28.4173 142.716 28.7171 142.981 29.0881C143.245 29.4584 143.435 29.8912 143.551 30.3872C143.667 30.8831 143.725 31.415 143.725 31.9828V36.7829C143.725 37.2639 143.328 37.6539 142.838 37.6539H142.293C141.804 37.6539 141.406 37.2639 141.406 36.7829V32.2607C141.406 31.9701 141.381 31.6889 141.329 31.4183C141.285 31.1659 141.193 30.9238 141.058 30.7043C140.931 30.5006 140.751 30.3333 140.537 30.2189C140.318 30.0993 140.035 30.0401 139.687 30.0401C139.327 30.0401 139.021 30.1092 138.769 30.2482C138.522 30.3835 138.311 30.5736 138.151 30.8033C137.986 31.0441 137.868 31.3131 137.803 31.5965C137.733 31.8922 137.697 32.1949 137.697 32.4987V36.7836C137.697 37.2646 137.3 37.6545 136.81 37.6545H136.266C135.776 37.6545 135.379 37.2646 135.379 36.7836V31.9834C135.379 31.3884 135.257 30.9157 135.012 30.5653C134.767 30.2156 134.362 30.0401 133.794 30.0401C133.409 30.0401 133.083 30.1066 132.819 30.2382C132.555 30.3712 132.336 30.5494 132.162 30.7741C131.985 31.0046 131.857 31.2675 131.785 31.5473C131.707 31.8453 131.668 32.1518 131.67 32.4595V36.7836C131.67 37.0147 131.576 37.2363 131.41 37.3997C131.243 37.563 131.018 37.6547 130.782 37.6545H130.238C129.748 37.6545 129.351 37.2646 129.351 36.7836V29.0076C129.351 28.5269 129.748 28.1367 130.238 28.1367H130.667C131.156 28.1367 131.553 28.5269 131.553 29.0076V29.6239C131.807 29.1562 132.16 28.7471 132.587 28.4239C133.044 28.0735 133.659 27.8987 134.432 27.8987C135.888 27.8987 136.853 28.487 137.33 29.6631C137.665 29.0555 138.084 28.6094 138.586 28.3248C139.088 28.0409 139.687 27.8987 140.383 27.8987ZM112.562 27.8987C112.704 27.8987 112.843 27.9119 112.977 27.9385C113.219 27.9855 113.393 28.1934 113.393 28.4352V29.7409C113.393 29.8818 113.33 30.0155 113.219 30.1059C113.109 30.1962 112.964 30.234 112.823 30.209C112.641 30.1763 112.457 30.1596 112.272 30.1591C111.731 30.1591 111.297 30.2615 110.969 30.4663C110.64 30.6717 110.389 30.9057 110.215 31.171C110.051 31.4123 109.933 31.6808 109.867 31.9635C109.809 32.2281 109.78 32.4262 109.78 32.5585V36.7836C109.78 37.2646 109.383 37.6545 108.893 37.6545H108.349C107.859 37.6545 107.462 37.2646 107.462 36.7836V29.0076C107.462 28.5269 107.859 28.1367 108.349 28.1367H109.013C109.436 28.1367 109.78 28.4737 109.78 28.8899V29.606C109.78 29.6266 109.797 29.6439 109.819 29.6439C110.076 29.0881 110.443 28.6586 110.92 28.3547C111.396 28.0509 111.944 27.8987 112.562 27.8987ZM116.737 28.1367C117.226 28.1367 117.624 28.5269 117.624 29.0076V36.7836C117.624 37.2646 117.227 37.6545 116.737 37.6545H116.193C115.703 37.6545 115.306 37.2646 115.306 36.7836V29.0076C115.306 28.5269 115.702 28.1367 116.193 28.1367H116.737ZM73.3647 23.7727C73.4254 23.773 73.4802 23.8087 73.504 23.8636C73.5279 23.9185 73.5163 23.9821 73.4743 24.0253L71.1311 26.4387C70.9686 26.5983 70.8515 26.7844 70.7777 26.9839C70.7127 27.1528 70.6795 27.3319 70.6795 27.5124V34.6329C70.6789 34.6929 70.6418 34.7468 70.5853 34.7697C70.5287 34.7926 70.4637 34.7801 70.4202 34.7379L68.6219 32.9668C68.4796 32.8264 68.3998 32.6363 68.3999 32.4382V26.7645C68.3999 25.1123 69.7607 23.7727 71.4398 23.7727H73.3647ZM99.9658 30.0401C99.5406 30.0401 99.1601 30.1199 98.8257 30.2781C98.4987 30.4308 98.2063 30.6465 97.9658 30.9124C97.7264 31.1787 97.5426 31.4886 97.4249 31.8245C97.3027 32.1686 97.2409 32.5305 97.242 32.8949C97.242 33.2659 97.303 33.6223 97.4249 33.966C97.5474 34.3097 97.7275 34.6142 97.9665 34.8781C98.2069 35.1443 98.4993 35.3602 98.8264 35.5131C99.1608 35.6713 99.5406 35.7511 99.9658 35.7511C100.391 35.7511 100.771 35.6713 101.105 35.5131C101.432 35.3602 101.725 35.1443 101.965 34.8781C102.203 34.6142 102.384 34.3097 102.507 33.966C102.629 33.6223 102.69 33.2659 102.69 32.8956C102.69 32.5253 102.629 32.1683 102.507 31.8252C102.389 31.489 102.205 31.1788 101.965 30.9124C101.725 30.6465 101.432 30.4308 101.105 30.2781C100.771 30.1192 100.391 30.0401 99.9658 30.0401ZM85.8101 20.8321C86.7897 21.3427 87.5903 22.1308 88.108 23.0939C88.6308 24.0557 88.9126 25.0097 88.9203 27.5931L88.9205 32.387C88.9205 32.4475 88.8833 32.502 88.8264 32.5251C88.7695 32.5482 88.7041 32.5355 88.6605 32.4927L86.8629 30.7236C86.7202 30.5832 86.6401 30.3928 86.6402 30.1944V28.0297C86.6402 26.0292 86.4283 25.3038 86.0308 24.5725C85.6424 23.8502 85.0418 23.2593 84.3071 22.8765C83.5644 22.4849 82.8271 22.2768 80.7946 22.2768H77.8867C77.8252 22.2765 77.77 22.2399 77.7466 22.1841C77.7232 22.1283 77.7363 22.0642 77.7797 22.0215L79.5772 20.2524C79.7194 20.1121 79.9131 20.033 80.1148 20.033H81.1256C83.8359 20.033 84.8189 20.3109 85.8101 20.8321ZM77.1534 20.033C77.2149 20.0333 77.2701 20.0698 77.2935 20.1256C77.3169 20.1814 77.3038 20.2456 77.2604 20.2883L75.4628 22.0574C75.32 22.1977 75.127 22.2768 74.9252 22.2768H72.7255C70.693 22.2768 69.9557 22.4849 69.2123 22.8765C68.4776 23.2593 67.877 23.8502 67.4886 24.5725C67.0911 25.3038 66.8792 26.0292 66.8792 28.0297V30.8911C66.8789 30.9513 66.8419 31.0054 66.7853 31.0285C66.7287 31.0516 66.6635 31.0391 66.6199 30.9968L64.823 29.2277C64.68 29.0874 64.5996 28.897 64.5996 28.6985V27.7032C64.5996 25.0366 64.8819 24.0692 65.4121 23.0939C65.9298 22.1308 66.7304 21.3427 67.71 20.8321C68.6874 20.3181 69.6569 20.0407 72.2819 20.0331L77.1534 20.033ZM82.0803 23.7727C83.7594 23.7727 85.1202 25.1123 85.1202 26.7645V28.6586C85.1199 28.7183 85.0835 28.7721 85.0276 28.7955C84.9717 28.8189 84.907 28.8075 84.8629 28.7663L82.412 26.4606C82.2495 26.3011 82.06 26.1854 81.8575 26.1129C81.6858 26.049 81.5036 26.0164 81.32 26.0165H74.085C74.0235 26.0165 73.968 25.98 73.9444 25.9242C73.9209 25.8683 73.9339 25.804 73.9774 25.7612L75.7777 23.9914C75.9198 23.8518 76.1128 23.7727 76.3145 23.7727H82.0803ZM116.445 23.4768C116.87 23.4768 117.228 23.6124 117.518 23.883C117.807 24.1543 117.952 24.4947 117.952 24.9042C117.952 25.3144 117.807 25.6548 117.518 25.9254C117.228 26.1967 116.87 26.3323 116.445 26.3323C116.021 26.3323 115.669 26.19 115.392 25.9061C115.123 25.6401 114.974 25.2793 114.977 24.9042C114.977 24.5213 115.115 24.1875 115.392 23.903C115.67 23.6191 116.021 23.4768 116.445 23.4768ZM147.724 23.4768C148.149 23.4768 148.507 23.6124 148.796 23.883C149.086 24.1543 149.231 24.4947 149.231 24.9042C149.231 25.3144 149.086 25.6548 148.796 25.9254C148.507 26.1967 148.149 26.3323 147.724 26.3323C147.299 26.3323 146.948 26.19 146.671 25.9061C146.402 25.6403 146.252 25.2794 146.256 24.9042C146.256 24.5213 146.394 24.1875 146.671 23.903C146.948 23.6191 147.299 23.4768 147.724 23.4768Z" fill="white"/>
</svg>
