<svg width="184" height="64" viewBox="0 0 184 64" fill="none" xmlns="http://www.w3.org/2000/svg">
<path d="M51.1758 24H48.1758V23C48.1758 22.7348 48.0704 22.4804 47.8829 22.2929C47.6954 22.1054 47.441 22 47.1758 22H37.1758C36.9106 22 36.6562 22.1054 36.4687 22.2929C36.2811 22.4804 36.1758 22.7348 36.1758 23V24H33.1758C32.9106 24 32.6562 24.1054 32.4687 24.2929C32.2811 24.4804 32.1758 24.7348 32.1758 25V28C32.1758 29.0609 32.5972 30.0783 33.3474 30.8284C34.0975 31.5786 35.1149 32 36.1758 32H37.7158C38.6203 33.0091 39.8398 33.6824 41.1758 33.91V36H40.1758C39.3801 36 38.6171 36.3161 38.0545 36.8787C37.4919 37.4413 37.1758 38.2044 37.1758 39V41C37.1758 41.2652 37.2811 41.5196 37.4687 41.7071C37.6562 41.8946 37.9106 42 38.1758 42H46.1758C46.441 42 46.6954 41.8946 46.8829 41.7071C47.0704 41.5196 47.1758 41.2652 47.1758 41V39C47.1758 38.2044 46.8597 37.4413 46.2971 36.8787C45.7345 36.3161 44.9714 36 44.1758 36H43.1758V33.91C44.5117 33.6824 45.7312 33.0091 46.6358 32H48.1758C49.2366 32 50.2541 31.5786 51.0042 30.8284C51.7544 30.0783 52.1758 29.0609 52.1758 28V25C52.1758 24.7348 52.0704 24.4804 51.8829 24.2929C51.6954 24.1054 51.441 24 51.1758 24V24ZM36.1758 30C35.6453 30 35.1366 29.7893 34.7616 29.4142C34.3865 29.0391 34.1758 28.5304 34.1758 28V26H36.1758V28C36.178 28.6817 36.2963 29.3581 36.5258 30H36.1758ZM44.1758 38C44.441 38 44.6954 38.1054 44.8829 38.2929C45.0704 38.4804 45.1758 38.7348 45.1758 39V40H39.1758V39C39.1758 38.7348 39.2811 38.4804 39.4687 38.2929C39.6562 38.1054 39.9106 38 40.1758 38H44.1758ZM46.1758 28C46.1758 29.0609 45.7544 30.0783 45.0042 30.8284C44.2541 31.5786 43.2366 32 42.1758 32C41.1149 32 40.0975 31.5786 39.3474 30.8284C38.5972 30.0783 38.1758 29.0609 38.1758 28V24H46.1758V28ZM50.1758 28C50.1758 28.5304 49.9651 29.0391 49.59 29.4142C49.2149 29.7893 48.7062 30 48.1758 30H47.8258C48.0552 29.3581 48.1736 28.6817 48.1758 28V26H50.1758V28Z" fill="#FDC448"/>
<path d="M37.6758 24V28.5L38.6758 32L42.6758 33L46.1758 31V24H37.6758Z" fill="#FDC448"/>
<path d="M90.1771 29.8517C91.226 29.8517 92.0763 29.0158 92.0763 27.9848C92.0763 26.9537 91.226 26.1179 90.1771 26.1179C89.1282 26.1179 88.2779 26.9537 88.2779 27.9848C88.2779 29.0158 89.1282 29.8517 90.1771 29.8517V29.8517ZM152.855 36.2301C152.566 36.0304 152.343 35.9974 152.158 36.3851C148.968 43.1742 143.593 39.7863 144.127 40.0845C145.319 39.5485 148.455 37.0771 147.981 33.6645C147.693 31.579 145.872 30.6539 143.938 30.9852C140.563 31.5634 139.322 35.1405 139.954 38.3075C140.065 38.8514 140.262 39.2999 140.46 39.7393C136.646 42.787 135.131 37.0111 134.96 36.3208C134.953 36.2839 137.904 33.8663 138.725 28.1053C139.586 22.0674 137.626 20.968 135.621 21.0023C131.913 21.0658 130.91 28.6808 132.257 35.0274C132.144 35.0563 131.619 35.3419 130.776 35.374C130.169 33.4976 127.576 31.8529 126.898 32.4867C125.199 34.0721 127.31 37.1717 128.794 37.4148C127.902 42.8134 122.324 41.4764 123.363 34.7127C125.179 31.3978 126.561 26.4689 126.314 23.4933C126.227 22.4398 125.434 21.0284 123.642 21.0984C120.194 21.2324 119.819 28.8495 120.223 34.2557C120.203 34.1226 120.012 34.9126 118.599 35.3054C118.265 33.4825 115.278 31.6527 114.575 32.5324C113.258 34.1789 115.539 37.1145 116.62 37.3193C115.728 42.7177 110.15 41.3807 111.188 34.617C113.005 31.3023 114.386 26.3733 114.14 23.3978C114.052 22.3441 113.26 20.9327 111.467 21.0025C108.02 21.1367 107.645 28.7538 108.049 34.1601C108.029 34.0248 107.832 34.8408 106.362 35.2271C106.313 32.8621 103.315 31.7776 102.595 32.5322C101.311 33.8774 102.889 36.6373 104.348 37.3193C103.456 42.7177 97.8781 41.3807 98.9165 34.617C100.733 31.3023 102.114 26.3733 101.868 23.3978C101.781 22.3441 100.988 20.9327 99.1954 21.0025C95.7479 21.1367 95.4704 29.1368 95.8746 34.5428C94.739 39.324 90.9309 45.2949 91.4256 33.334C91.4745 32.495 91.5278 32.1764 91.1022 31.8622C90.7832 31.6181 90.0579 31.7356 89.6614 31.7453C89.1795 31.7643 89.0587 32.0413 88.9522 32.4601C88.7041 33.5416 88.6596 34.59 88.6241 36.0204C88.6008 36.6895 88.5463 37.0018 88.284 37.9142C88.0221 38.8264 86.5281 40.4938 85.71 40.215C84.5752 39.8315 84.9475 36.6832 85.1602 34.5201C85.3374 32.8107 84.7699 32.0431 83.3161 31.7639C82.465 31.5896 81.9479 31.6163 81.0615 31.3417C80.2232 31.0821 80.0337 29.5239 78.2458 30.0432C77.268 30.3275 77.8966 32.3636 77.6616 33.8726C76.5062 41.2959 74.102 41.4998 72.9867 37.8938C78.0099 25.8038 74.4398 21.0375 72.35 21.0375C70.1734 21.0375 67.6853 22.5109 68.7389 31.9379C68.2266 31.791 68.0691 31.7118 67.5083 31.7118C64.3366 31.7118 62.1758 34.2315 62.1758 37.3397C62.1758 40.4479 64.3368 42.9677 67.5085 42.9677C69.3808 42.9677 70.6954 42.1309 71.6909 40.8365C72.3405 41.7506 73.1315 42.9818 74.578 42.9264C78.8895 42.7614 80.1434 34.0702 80.2914 33.5854C80.7523 33.6552 81.1884 33.7873 81.614 33.8571C82.3232 33.9618 82.3748 34.2376 82.3587 34.9386C82.1707 40.8496 83.2807 42.9193 85.7985 42.9193C87.2013 42.9193 88.4516 41.5649 89.3129 40.5963C89.9562 41.9012 90.9813 42.8794 92.3566 42.9192C95.689 43.0006 96.9649 37.781 96.8485 38.4679C96.7572 39.0069 97.9297 42.8898 101.36 42.9038C105.61 42.9214 106.4 38.329 106.494 37.5597C106.506 37.4067 106.511 37.4225 106.494 37.5597L106.491 37.6063C107.84 37.3597 108.536 36.6489 108.536 36.6489C108.536 36.6489 109.619 42.9753 113.632 42.904C117.799 42.8298 118.585 38.6785 118.688 37.869C118.702 37.6769 118.71 37.6994 118.688 37.869C118.687 37.8769 118.687 37.8848 118.686 37.8927C120.289 37.3198 120.711 36.7448 120.711 36.7448C120.711 36.7448 121.571 42.9454 125.807 42.9995C129.581 43.0481 130.979 39.2502 130.987 37.6605C131.624 37.6672 132.801 37.2894 132.774 37.2679C132.774 37.2679 134.156 42.6892 138.017 42.9677C139.829 43.0984 141.189 41.9654 141.964 41.4486C143.785 42.8982 149.851 44.7498 153.681 38.3689C154.221 37.4531 153.059 36.3713 152.855 36.2301V36.2301ZM67.3554 40.8628C65.505 40.8628 64.3184 39.1814 64.3184 37.3684C64.3184 35.5555 65.4076 33.874 67.2581 33.874C68.0908 33.874 68.554 33.9641 69.2025 34.5184C69.3201 34.9738 69.6534 36.0243 69.8156 36.5013C70.0329 37.1397 70.2914 37.683 70.552 38.2744C70.1797 39.7912 68.9591 40.8628 67.3554 40.8628V40.8628ZM71.8647 34.5717C71.7878 34.4512 71.8039 34.5252 71.7178 34.4114C71.3786 33.5046 70.7249 31.4807 70.6492 29.1818C70.5636 26.5813 71.0047 23.533 72.3049 23.533C73.1859 23.533 74.1223 29.7108 71.8646 34.5717H71.8647ZM97.9198 31.8621C97.7111 30.3189 97.7002 23.4393 99.3808 23.6287C100.309 23.9981 98.7924 30.4898 97.9198 31.8621ZM110.192 31.8621C109.983 30.3189 109.972 23.4393 111.653 23.6287C112.581 23.9981 111.064 30.4898 110.192 31.8621ZM122.366 31.9579C122.157 30.4145 122.147 23.535 123.827 23.7244C124.755 24.0938 123.239 30.5857 122.366 31.9579ZM135.807 23.2261C137.343 23.0695 137.28 29.6634 134.196 33.8264C133.798 32.3217 133.188 23.7427 135.807 23.2259V23.2261ZM142.265 37.4148C141.772 34.965 143.047 33.356 144.361 33.1796C144.821 33.1074 145.487 33.4 145.619 33.9469C145.838 34.9775 145.588 36.5062 142.646 38.4459C142.65 38.4625 142.375 37.9604 142.265 37.4148H142.265Z" fill="white"/>
</svg>
