<svg width="184" height="64" viewBox="0 0 184 64" fill="none" xmlns="http://www.w3.org/2000/svg">
<path d="M37.6992 24H34.6992V23C34.6992 22.7348 34.5939 22.4804 34.4063 22.2929C34.2188 22.1054 33.9644 22 33.6992 22H23.6992C23.434 22 23.1796 22.1054 22.9921 22.2929C22.8046 22.4804 22.6992 22.7348 22.6992 23V24H19.6992C19.434 24 19.1796 24.1054 18.9921 24.2929C18.8046 24.4804 18.6992 24.7348 18.6992 25V28C18.6992 29.0609 19.1206 30.0783 19.8708 30.8284C20.6209 31.5786 21.6384 32 22.6992 32H24.2392C25.1438 33.0091 26.3633 33.6824 27.6992 33.91V36H26.6992C25.9036 36 25.1405 36.3161 24.5779 36.8787C24.0153 37.4413 23.6992 38.2044 23.6992 39V41C23.6992 41.2652 23.8046 41.5196 23.9921 41.7071C24.1796 41.8946 24.434 42 24.6992 42H32.6992C32.9644 42 33.2188 41.8946 33.4063 41.7071C33.5939 41.5196 33.6992 41.2652 33.6992 41V39C33.6992 38.2044 33.3831 37.4413 32.8205 36.8787C32.2579 36.3161 31.4949 36 30.6992 36H29.6992V33.91C31.0352 33.6824 32.2547 33.0091 33.1592 32H34.6992C35.7601 32 36.7775 31.5786 37.5276 30.8284C38.2778 30.0783 38.6992 29.0609 38.6992 28V25C38.6992 24.7348 38.5939 24.4804 38.4063 24.2929C38.2188 24.1054 37.9644 24 37.6992 24V24ZM22.6992 30C22.1688 30 21.6601 29.7893 21.285 29.4142C20.9099 29.0391 20.6992 28.5304 20.6992 28V26H22.6992V28C22.7014 28.6817 22.8198 29.3581 23.0492 30H22.6992ZM30.6992 38C30.9644 38 31.2188 38.1054 31.4063 38.2929C31.5939 38.4804 31.6992 38.7348 31.6992 39V40H25.6992V39C25.6992 38.7348 25.8046 38.4804 25.9921 38.2929C26.1796 38.1054 26.434 38 26.6992 38H30.6992ZM32.6992 28C32.6992 29.0609 32.2778 30.0783 31.5276 30.8284C30.7775 31.5786 29.7601 32 28.6992 32C27.6384 32 26.6209 31.5786 25.8708 30.8284C25.1206 30.0783 24.6992 29.0609 24.6992 28V24H32.6992V28ZM36.6992 28C36.6992 28.5304 36.4885 29.0391 36.1134 29.4142C35.7384 29.7893 35.2297 30 34.6992 30H34.3492C34.5787 29.3581 34.697 28.6817 34.6992 28V26H36.6992V28Z" fill="#FDC448"/>
<path d="M24.1992 24V28.5L25.1992 32L29.1992 33L32.6992 31V24H24.1992Z" fill="#FDC448"/>
<path d="M57.0399 32.4748C54.2799 36.3392 51.5611 40.2029 48.8008 43.9922L49.3372 40.4239C49.4607 39.6025 49.5892 38.7649 49.9607 38.022V38.022C50.1074 37.7285 50.328 37.4635 50.5445 37.2191V37.2191C51.0461 36.6529 51.6558 36.1955 52.2709 35.7553L56.9669 32.3945L57.0399 32.4748Z" fill="white"/>
<path d="M65.7208 32.1107L48.7891 44.0078L50.435 41.4315L50.8326 41.0883L56.963 32.4756V32.4026L57.182 32.1107V32.0377L56.9062 31.6768L52.668 26.0362L48.6992 19.9931L65.7208 32.1107Z" fill="white"/>
<path d="M54.4794 32.11L49.8816 35.3945L50.5384 32.11L49.8086 28.9715L54.4794 32.11Z" fill="white"/>
<path d="M48.7148 19.9923L49.4447 25.0285C49.5906 26.1233 50.1745 27.1452 51.1232 27.8021L57.2537 32.1084L48.7148 19.9923Z" fill="white"/>
<path d="M73.7207 27.1875H77.5347C80.6044 27.1875 82.744 29.2805 82.744 31.9782V32.0247C82.744 34.7224 80.6509 36.8154 77.5347 36.8154H73.7207V27.1875ZM77.5347 34.8619C79.3021 34.8619 80.4649 33.6991 80.4649 32.0247V31.9782C80.4649 30.3038 79.3021 29.0945 77.5347 29.0945H75.9068V34.8619H77.5347Z" fill="white"/>
<path d="M84.6055 27.1875H92.0008V29.048H86.7915V31.0015H91.3962V32.8619H86.7915V34.8619H92.0939V36.7224H84.652L84.6055 27.1875Z" fill="white"/>
<path d="M93.3008 35.3725L94.6031 33.8841C95.4868 34.5818 96.4171 35.0469 97.5333 35.0469C98.4171 35.0469 98.9287 34.6748 98.9287 34.1632V34.1166C98.9287 33.5585 98.5566 33.2794 96.9752 32.9073C95.0217 32.3957 93.7194 31.8841 93.7194 29.9771V29.9306C93.7194 28.2097 95.1147 27.0469 97.1613 27.0469C98.5566 27.0469 99.8124 27.4655 100.789 28.2562L99.6729 29.8841C98.8357 29.2794 97.952 28.9539 97.1147 28.9539C96.2775 28.9539 95.8589 29.3259 95.8589 29.7911V29.7445C95.8589 30.3492 96.2775 30.5818 97.952 31.0004C99.952 31.512 101.022 32.2097 101.022 33.8376V33.8841C101.022 35.7911 99.5334 36.8608 97.4403 36.8608C95.9519 36.8608 94.4636 36.3492 93.3008 35.3725Z" fill="white"/>
<path d="M102.975 27.1875H105.114V36.7689H102.975V27.1875Z" fill="white"/>
<path d="M107.164 31.9767C107.164 29.2326 109.304 27 112.28 27C114.048 27 115.071 27.4651 116.094 28.3488L114.745 29.9767C114.001 29.3721 113.35 29 112.187 29C110.606 29 109.397 30.3488 109.397 31.9767V32.0233C109.397 33.7907 110.606 35.093 112.373 35.093C113.164 35.093 113.862 34.907 114.42 34.4884V33.1395H112.234V31.3256H116.466V35.4651C115.443 36.3023 114.094 37 112.28 37C109.211 36.8605 107.164 34.814 107.164 31.9767Z" fill="white"/>
<path d="M118.51 27.1875H120.51L125.068 33.048V27.1875H127.161V36.7689H125.347L120.603 30.6759V36.7689H118.51V27.1875Z" fill="white"/>
<path d="M129.532 27.1836H133.998C135.253 27.1836 136.184 27.5557 136.835 28.1603C137.393 28.7185 137.672 29.4627 137.672 30.3464V30.3929C137.672 31.9278 136.835 32.9045 135.579 33.3696L137.951 36.765H135.439L133.346 33.6952H133.3H131.626V36.765H129.439V27.1836H129.532ZM133.858 31.7882C134.928 31.7882 135.486 31.2301 135.486 30.4394V30.3929C135.486 29.5092 134.881 29.0441 133.812 29.0441H131.672V31.7882H133.858Z" fill="white"/>
<path d="M139.484 32.6247V27.1364H141.624V32.5317C141.624 34.1131 142.415 34.8573 143.717 34.8573C145.019 34.8573 145.81 34.0666 145.81 32.5317V27.0898H147.95V32.4852C147.95 35.3689 146.275 36.8108 143.67 36.8108C141.066 36.8108 139.484 35.4154 139.484 32.6247Z" fill="white"/>
<path d="M149.488 35.3725L150.791 33.8841C151.674 34.5818 152.605 35.0469 153.721 35.0469C154.605 35.0469 155.116 34.6748 155.116 34.1632V34.1166C155.116 33.5585 154.744 33.2794 153.163 32.9073C151.209 32.3957 149.907 31.8841 149.907 29.9771V29.9306C149.907 28.2097 151.302 27.0469 153.349 27.0469C154.744 27.0469 156 27.4655 156.977 28.2562L155.86 29.8841C155.023 29.2794 154.139 28.9539 153.302 28.9539C152.465 28.9539 152.046 29.3259 152.046 29.7911V29.7445C152.046 30.3492 152.465 30.5818 154.139 31.0004C156.139 31.512 157.209 32.2097 157.209 33.8376V33.8841C157.209 35.7911 155.721 36.8608 153.628 36.8608C152.186 36.8608 150.651 36.3492 149.488 35.3725Z" fill="white"/>
<path d="M159.066 27.1836H161.206V30.9975H165.159V27.1836H167.299V36.765H165.159V32.951H161.206V36.765H159.066V27.1836Z" fill="white"/>
</svg>
