<svg width="184" height="64" viewBox="0 0 184 64" fill="none" xmlns="http://www.w3.org/2000/svg">
<path fill-rule="evenodd" clip-rule="evenodd" d="M32.699 39.5582C34.1406 41.4915 34.9073 41.7165 35.349 41.7165C35.7906 41.7165 36.5573 41.4915 37.999 39.5582C38.1122 39.4093 38.2628 39.2931 38.4355 39.2214C38.6083 39.1496 38.7969 39.125 38.9823 39.1499C41.199 39.4665 41.849 39.1082 42.149 38.8082C42.449 38.5082 42.8073 37.8499 42.499 35.6332C42.4723 35.4477 42.4961 35.2585 42.568 35.0854C42.6399 34.9124 42.7571 34.7619 42.9073 34.6499C44.8406 33.2082 45.0573 32.4415 45.0573 31.9999C45.0573 31.5582 44.8406 30.7915 42.9073 29.3499C42.7571 29.2378 42.6399 29.0874 42.568 28.9143C42.4961 28.7413 42.4723 28.552 42.499 28.3665C42.849 26.1665 42.449 25.4832 42.149 25.1915C41.849 24.8999 41.199 24.5332 38.9823 24.8499C38.797 24.8739 38.6086 24.8488 38.436 24.7772C38.2635 24.7055 38.1127 24.5898 37.999 24.4415C36.5573 22.5082 35.7906 22.2832 35.349 22.2832C34.9073 22.2832 34.1406 22.5082 32.699 24.4415C32.5858 24.5904 32.4351 24.7066 32.2624 24.7784C32.0896 24.8501 31.901 24.8748 31.7156 24.8499C29.5156 24.4999 28.849 24.8915 28.549 25.1915C28.249 25.4915 27.8906 26.1499 28.199 28.3665C28.2256 28.552 28.2018 28.7413 28.1299 28.9143C28.0581 29.0874 27.9408 29.2378 27.7906 29.3499C25.8573 30.7915 25.6406 31.5582 25.6406 31.9999C25.6406 32.4415 25.8573 33.2082 27.7906 34.6499C27.9408 34.7619 28.0581 34.9124 28.1299 35.0854C28.2018 35.2585 28.2256 35.4477 28.199 35.6332C27.8906 37.8332 28.249 38.5165 28.549 38.8082C28.849 39.0999 29.5156 39.4999 31.7156 39.1499C31.901 39.125 32.0896 39.1496 32.2624 39.2214C32.4351 39.2931 32.5858 39.4093 32.699 39.5582ZM34.6112 34.8547C34.7128 34.8962 34.8215 34.9172 34.9311 34.9166C35.0408 34.9172 35.1495 34.8962 35.2511 34.8547C35.3526 34.8132 35.4449 34.7521 35.5228 34.6749L38.8561 31.3416C38.9343 31.2641 38.9962 31.1719 39.0386 31.0704C39.0809 30.9688 39.1026 30.8599 39.1026 30.7499C39.1026 30.6399 39.0809 30.531 39.0386 30.4294C38.9962 30.3279 38.9343 30.2357 38.8561 30.1582C38.7787 30.0801 38.6865 30.0181 38.585 29.9758C38.4834 29.9335 38.3745 29.9117 38.2645 29.9117C38.1545 29.9117 38.0455 29.9335 37.944 29.9758C37.8424 30.0181 37.7503 30.0801 37.6728 30.1582L34.9311 32.9082L33.8561 31.8249C33.6992 31.668 33.4864 31.5798 33.2645 31.5798C33.0426 31.5798 32.8297 31.668 32.6728 31.8249C32.5159 31.9818 32.4277 32.1947 32.4277 32.4166C32.4277 32.6385 32.5159 32.8513 32.6728 33.0082L34.3395 34.6749C34.4173 34.7521 34.5097 34.8132 34.6112 34.8547Z" fill="#146EF5"/>
<g clip-path="url(#clip0_53887_50389)">
<path fill-rule="evenodd" clip-rule="evenodd" d="M87.501 23.2163L78.5267 40.7584H70.0983L73.8535 33.4882H73.6844C70.5862 37.5104 65.9634 40.1577 59.377 40.7584V33.5891C59.377 33.5891 63.5904 33.3399 66.0672 30.7356H59.3784V23.2163H66.8977V29.4008H67.0668L70.1398 23.2163H75.826V29.3623H75.9951L79.1837 23.2163H87.501Z" fill="white"/>
<path d="M136.434 38.8234H138.855V24.9224H136.434V38.8234Z" fill="white"/>
<path fill-rule="evenodd" clip-rule="evenodd" d="M123.086 38.6824C123.613 38.9019 124.148 39.0102 124.693 39.0102C125.591 39.0102 126.395 38.7907 127.106 38.3532C127.815 37.9157 128.365 37.312 128.756 36.5438C129.146 35.7696 129.342 34.8901 129.342 33.9098C129.342 32.928 129.141 32.05 128.739 31.2758C128.337 30.5017 127.778 29.901 127.061 29.4753C126.346 29.0438 125.532 28.8302 124.622 28.8361C124.042 28.8361 123.485 28.9489 122.955 29.1728C122.422 29.3982 121.979 29.7171 121.624 30.1309C121.597 30.162 121.571 30.1947 121.544 30.2258V24.9326H119.113V38.8248H121.526L121.522 37.5271C121.584 37.6042 121.651 37.6784 121.722 37.751C122.105 38.147 122.56 38.457 123.086 38.6824ZM125.569 36.4385C125.173 36.6802 124.721 36.8019 124.212 36.8019C123.709 36.8019 123.248 36.6773 122.828 36.4296C122.409 36.1745 122.075 35.8289 121.826 35.3914C121.584 34.9539 121.463 34.4571 121.463 33.9009C121.457 33.3448 121.575 32.8479 121.817 32.4104C122.065 31.967 122.4 31.6244 122.82 31.3811C123.239 31.1335 123.703 31.0118 124.212 31.0178C124.721 31.0118 125.173 31.1305 125.569 31.3722C125.971 31.608 126.278 31.9492 126.492 32.3926C126.711 32.8301 126.819 33.3329 126.819 33.9009C126.819 34.4689 126.71 34.9717 126.492 35.4092C126.28 35.8467 125.973 36.1893 125.569 36.4385Z" fill="white"/>
<path d="M91.0098 25.7654H93.7772L96.2525 34.8078L98.8865 25.7654H101.193L104.049 34.6254L106.427 25.7654H108.964L105.221 38.8226H102.835L99.9306 30.1672L97.264 38.8226H94.851L91.0098 25.7654Z" fill="white"/>
<path fill-rule="evenodd" clip-rule="evenodd" d="M113.049 39.0524C112.085 39.0584 111.216 38.8448 110.44 38.4132C109.672 37.9757 109.065 37.3691 108.622 36.5949C108.184 35.8208 107.965 34.9368 107.965 33.9432C107.965 32.9791 108.19 32.1071 108.64 31.327C109.089 30.5469 109.699 29.9373 110.467 29.4998C111.235 29.0623 112.094 28.8428 113.04 28.8428C114.105 28.8428 115.036 29.0786 115.834 29.5517C116.638 30.0248 117.239 30.6966 117.635 31.5657C118.037 32.4289 118.182 33.4196 118.069 34.5379H110.471C110.492 34.9828 110.603 35.3877 110.805 35.7525C111.03 36.1544 111.343 36.4674 111.745 36.6928C112.147 36.9182 112.597 37.0295 113.093 37.0295C113.472 37.0235 113.823 36.9583 114.149 36.8337C114.474 36.7032 114.75 36.5297 114.974 36.3102C115.205 36.0907 115.367 35.843 115.462 35.5657H117.999C117.845 36.2464 117.538 36.8515 117.077 37.3839C116.616 37.9104 116.036 38.3213 115.339 38.6164C114.64 38.913 113.876 39.0584 113.049 39.0524ZM110.814 32.0982C110.671 32.3459 110.574 32.6113 110.519 32.8961H115.555C115.518 32.5357 115.407 32.2079 115.222 31.9113C115.008 31.5628 114.719 31.2929 114.353 31.1045C113.986 30.9087 113.572 30.8123 113.111 30.8123C112.62 30.8123 112.174 30.925 111.772 31.149C111.369 31.3729 111.05 31.6903 110.814 32.0982Z" fill="white"/>
<path d="M131.12 29.047C131.12 28.2551 131.301 27.5506 131.662 26.9351C132.022 26.3137 132.528 25.8317 133.179 25.4891C133.836 25.1406 134.601 24.9596 135.476 24.9478V27.1027C135.068 27.1086 134.72 27.1946 134.429 27.3593C134.146 27.5194 133.926 27.7523 133.772 28.0608C133.631 28.344 133.554 28.6718 133.544 29.0456H135.423V31.0952H133.542V38.8221H131.12V31.0952H129.559V29.0456H131.12V29.047Z" fill="white"/>
<path fill-rule="evenodd" clip-rule="evenodd" d="M145.011 39.0333C144.023 39.0333 143.139 38.8167 142.359 38.3852C141.585 37.9476 140.975 37.344 140.532 36.5758C140.094 35.8016 139.875 34.9236 139.875 33.9418C139.875 32.9541 140.094 32.0731 140.532 31.2989C140.975 30.5188 141.585 29.9122 142.359 29.4806C143.139 29.0491 144.023 28.8325 145.011 28.8325C146.005 28.8325 146.892 29.0491 147.672 29.4806C148.458 29.9122 149.07 30.5158 149.508 31.29C149.945 32.0642 150.168 32.9481 150.174 33.9418C150.168 34.9236 149.945 35.8016 149.508 36.5758C149.076 37.344 148.467 37.9476 147.681 38.3852C146.895 38.8182 146.005 39.0333 145.011 39.0333ZM145.011 36.8071C145.532 36.8071 145.993 36.6885 146.395 36.4527C146.797 36.2109 147.107 35.8728 147.326 35.4412C147.546 35.0037 147.654 34.5039 147.654 33.9418C147.654 33.3738 147.544 32.871 147.326 32.4335C147.107 31.996 146.797 31.6593 146.395 31.422C145.993 31.1803 145.532 31.0587 145.011 31.0587C144.496 31.0587 144.038 31.1803 143.636 31.422C143.24 31.6593 142.932 31.996 142.714 32.4335C142.494 32.871 142.389 33.3738 142.395 33.9418C142.395 34.5039 142.505 35.0037 142.723 35.4412C142.948 35.8728 143.255 36.2095 143.645 36.4527C144.041 36.6885 144.496 36.8071 145.011 36.8071Z" fill="white"/>
<path d="M152.792 29.0459H150.096L153.014 38.821H155.374L157.293 32.5772L159.365 38.821H161.689L164.617 29.0459H162.177L160.516 35.1311L158.681 29.0459H156.322L154.496 35.2645L152.792 29.0459Z" fill="white"/>
</g>
<defs>
<clipPath id="clip0_53887_50389">
<rect width="105.3" height="17.6489" fill="white" transform="translate(59.3496 23.1755)"/>
</clipPath>
</defs>
</svg>
