<svg width="24" height="24" viewBox="0 0 24 24" fill="none" xmlns="http://www.w3.org/2000/svg">
<path d="M10.0002 9.79922C10.0002 9.385 9.66441 9.04922 9.25019 9.04922C8.83598 9.04922 8.50019 9.385 8.50019 9.79922H10.0002ZM8.50019 20.7992C8.50019 21.2134 8.83598 21.5492 9.25019 21.5492C9.66441 21.5492 10.0002 21.2134 10.0002 20.7992H8.50019ZM6.5002 3.19922V3.94922H17.5002V3.19922V2.44922H6.5002V3.19922ZM20.8002 6.49922H20.0502V17.4992H20.8002H21.5502V6.49922H20.8002ZM17.5002 20.7992V20.0492H6.5002V20.7992V21.5492H17.5002V20.7992ZM3.2002 17.4992H3.9502V6.49922H3.2002H2.4502V17.4992H3.2002ZM6.5002 20.7992V20.0492C5.09187 20.0492 3.9502 18.9075 3.9502 17.4992H3.2002H2.4502C2.4502 19.736 4.26344 21.5492 6.5002 21.5492V20.7992ZM20.8002 17.4992H20.0502C20.0502 18.9075 18.9085 20.0492 17.5002 20.0492V20.7992V21.5492C19.7369 21.5492 21.5502 19.736 21.5502 17.4992H20.8002ZM17.5002 3.19922V3.94922C18.9085 3.94922 20.0502 5.09089 20.0502 6.49922H20.8002H21.5502C21.5502 4.26247 19.7369 2.44922 17.5002 2.44922V3.19922ZM6.5002 3.19922V2.44922C4.26344 2.44922 2.4502 4.26247 2.4502 6.49922H3.2002H3.9502C3.9502 5.09089 5.09187 3.94922 6.5002 3.94922V3.19922ZM9.25019 9.79922H8.50019V20.7992H9.25019H10.0002V9.79922H9.25019ZM3.7502 9.24922V9.99922H20.2502V9.24922V8.49922H3.7502V9.24922Z" fill="#3827C7"/>
</svg>
