<svg width="24" height="24" viewBox="0 0 24 24" fill="none" xmlns="http://www.w3.org/2000/svg">
<path d="M16.8891 20.7992C15.8518 20.7992 14.857 20.3872 14.1235 19.6537C13.39 18.9202 12.978 17.9254 12.978 16.8881V5.15477C12.978 4.63613 13.184 4.13873 13.5507 3.77199C13.9175 3.40525 14.4149 3.19922 14.9335 3.19922H18.8446C19.3633 3.19922 19.8607 3.40525 20.2274 3.77199C20.5942 4.13873 20.8002 4.63613 20.8002 5.15477V16.8881C20.8002 17.9254 20.3881 18.9202 19.6547 19.6537C18.9212 20.3872 17.9264 20.7992 16.8891 20.7992ZM16.8891 20.7992H5.15575C4.63711 20.7992 4.1397 20.5932 3.77296 20.2264C3.40623 19.8597 3.2002 19.3623 3.2002 18.8437V14.9326C3.2002 14.4139 3.40623 13.9165 3.77296 13.5498C4.1397 13.183 4.63711 12.977 5.15575 12.977H7.40464M12.978 7.45255L11.0224 5.497C10.6557 5.13039 10.1584 4.92444 9.63984 4.92444C9.1213 4.92444 8.62398 5.13039 8.25726 5.497L5.49211 8.26215C5.1255 8.62887 4.91955 9.12619 4.91955 9.64473C4.91955 10.1633 5.1255 10.6606 5.49211 11.0273L14.2921 19.8273M16.8891 16.8881V16.8979" stroke="#3827C7" stroke-width="1.5" stroke-linecap="round" stroke-linejoin="round"/>
</svg>
