<svg width="24" height="24" viewBox="0 0 24 24" fill="none" xmlns="http://www.w3.org/2000/svg">
<path d="M20.8002 7.05C20.8002 8.87254 16.8603 10.35 12.0002 10.35C7.14009 10.35 3.2002 8.87254 3.2002 7.05M20.8002 7.05C20.8002 5.22746 16.8603 3.75 12.0002 3.75C7.14009 3.75 3.2002 5.22746 3.2002 7.05M20.8002 7.05V16.95C20.8002 18.7725 16.8603 20.25 12.0002 20.25C7.14009 20.25 3.2002 18.7725 3.2002 16.95V7.05M20.8002 12C20.8002 13.8225 16.8603 15.3 12.0002 15.3C7.14009 15.3 3.2002 13.8225 3.2002 12" stroke="#3827C7" stroke-width="1.5"/>
</svg>
