<svg width="40" height="40" viewBox="0 0 40 40" fill="none" xmlns="http://www.w3.org/2000/svg">
<rect x="0.132812" y="0.057373" width="39.7307" height="39.7307" rx="19.8654" fill="#02021E"/>
<path d="M26.982 8.19301C27.052 8.03739 27.285 8.03739 27.3549 8.19301C28.2094 10.1538 29.7707 11.7099 31.7282 12.5658C31.8836 12.6359 31.8836 12.8693 31.7282 12.9393C29.7707 13.7874 28.2094 15.3514 27.3549 17.3122C27.285 17.4678 27.052 17.4678 26.982 17.3122C26.1276 15.3514 24.5662 13.7952 22.6087 12.9393C22.4533 12.8693 22.4533 12.6359 22.6087 12.5658C24.5662 11.7177 26.1276 10.1538 26.982 8.19301Z" fill="#FDC448"/>
<path d="M31.222 20.2307C31.222 26.6067 26.0516 31.7694 19.6833 31.7694C13.315 31.7694 8.15234 26.6067 8.15234 20.2307C8.15234 13.8546 13.315 8.69971 19.6833 8.69971V12.448C15.3863 12.448 11.9007 15.9336 11.9007 20.2307C11.9007 24.5277 15.3863 28.0133 19.6833 28.0133C23.9804 28.0133 27.4659 24.5355 27.4659 20.2307H31.222Z" fill="white"/>
</svg>
